<svg xmlns="http://www.w3.org/2000/svg" viewBox="0 0 408 507"><path d="M 273,427 L 274,426 L 275,426 L 276,427 L 276,431 L 275,432 L 275,438 L 274,439 L 274,441 L 273,442 L 260,442 L 259,441 L 259,439 L 258,438 L 258,432 L 257,431 L 257,430 L 258,429 L 265,429 L 266,428 L 269,428 L 270,427 Z" fill="black"/><path d="M 149,427 L 150,426 L 151,426 L 152,427 L 155,427 L 156,428 L 159,428 L 160,429 L 167,429 L 168,430 L 168,431 L 167,432 L 167,438 L 166,439 L 166,441 L 165,442 L 152,442 L 151,441 L 151,439 L 150,438 L 150,432 L 149,431 Z" fill="black"/><path d="M 203,256 L 204,255 L 221,255 L 222,256 L 220,258 L 220,259 L 218,261 L 218,262 L 216,264 L 216,265 L 214,267 L 214,268 L 213,269 L 212,269 L 211,268 L 211,267 L 209,265 L 209,264 L 207,262 L 207,261 L 205,259 L 205,258 Z" fill="black"/><path d="M 91,226 L 90,227 L 89,227 L 88,228 L 88,229 L 86,231 L 86,232 L 85,233 L 85,234 L 84,235 L 84,236 L 83,237 L 83,239 L 82,240 L 82,244 L 81,245 L 81,254 L 82,255 L 82,259 L 83,260 L 83,262 L 84,263 L 84,264 L 85,265 L 85,266 L 86,267 L 84,269 L 83,269 L 76,276 L 76,277 L 74,279 L 74,280 L 73,281 L 73,282 L 72,283 L 72,284 L 71,285 L 71,287 L 70,288 L 70,292 L 69,293 L 69,302 L 70,303 L 70,307 L 71,308 L 71,310 L 72,311 L 72,312 L 73,313 L 73,314 L 74,315 L 74,316 L 76,318 L 76,319 L 82,325 L 82,328 L 81,329 L 81,338 L 82,339 L 82,343 L 83,344 L 83,346 L 84,347 L 84,348 L 85,349 L 85,350 L 86,351 L 86,352 L 88,354 L 88,355 L 93,360 L 93,368 L 94,369 L 94,373 L 95,374 L 95,376 L 96,377 L 96,378 L 97,379 L 97,380 L 98,381 L 98,382 L 100,384 L 100,385 L 107,392 L 108,392 L 110,394 L 111,394 L 112,395 L 113,395 L 114,396 L 115,396 L 116,397 L 118,397 L 119,398 L 123,398 L 124,399 L 129,399 L 130,400 L 130,403 L 131,404 L 131,406 L 132,407 L 132,408 L 133,409 L 133,410 L 134,411 L 134,412 L 136,414 L 136,417 L 137,418 L 137,424 L 138,425 L 138,430 L 139,431 L 139,437 L 140,438 L 140,444 L 141,445 L 141,449 L 142,450 L 142,451 L 143,452 L 144,452 L 145,453 L 172,453 L 173,452 L 174,452 L 175,451 L 175,450 L 176,449 L 176,445 L 177,444 L 177,438 L 178,437 L 178,431 L 179,430 L 179,426 L 180,425 L 181,425 L 182,424 L 184,426 L 184,427 L 191,434 L 192,434 L 194,436 L 195,436 L 196,437 L 197,437 L 198,438 L 199,438 L 200,439 L 202,439 L 203,440 L 207,440 L 208,441 L 217,441 L 218,440 L 222,440 L 223,439 L 225,439 L 226,438 L 227,438 L 228,437 L 229,437 L 230,436 L 231,436 L 233,434 L 234,434 L 241,427 L 241,426 L 243,424 L 244,425 L 245,425 L 246,426 L 246,430 L 247,431 L 247,437 L 248,438 L 248,444 L 249,445 L 249,449 L 250,450 L 250,451 L 251,452 L 252,452 L 253,453 L 280,453 L 281,452 L 282,452 L 283,451 L 283,450 L 284,449 L 284,445 L 285,444 L 285,438 L 286,437 L 286,431 L 287,430 L 287,425 L 288,424 L 288,418 L 289,417 L 289,414 L 291,412 L 291,411 L 292,410 L 292,409 L 293,408 L 293,407 L 294,406 L 294,404 L 295,403 L 295,400 L 296,399 L 301,399 L 302,398 L 306,398 L 307,397 L 309,397 L 310,396 L 311,396 L 312,395 L 313,395 L 314,394 L 315,394 L 317,392 L 318,392 L 325,385 L 325,384 L 327,382 L 327,381 L 328,380 L 328,379 L 329,378 L 329,377 L 330,376 L 330,374 L 331,373 L 331,369 L 332,368 L 332,360 L 337,355 L 337,354 L 339,352 L 339,351 L 340,350 L 340,349 L 341,348 L 341,347 L 342,346 L 342,343 L 343,342 L 343,339 L 344,338 L 344,329 L 343,328 L 343,325 L 349,319 L 349,318 L 351,316 L 351,315 L 352,314 L 352,313 L 353,312 L 353,311 L 354,310 L 354,308 L 355,307 L 355,303 L 356,302 L 356,293 L 355,292 L 355,288 L 354,287 L 354,285 L 353,284 L 353,283 L 352,282 L 352,281 L 351,280 L 351,279 L 349,277 L 349,276 L 342,269 L 341,269 L 339,267 L 340,266 L 340,265 L 341,264 L 341,263 L 342,262 L 342,260 L 343,259 L 343,255 L 344,254 L 344,245 L 343,244 L 343,240 L 342,239 L 342,237 L 341,236 L 341,235 L 340,234 L 340,233 L 339,232 L 339,231 L 337,229 L 337,228 L 336,227 L 335,227 L 334,226 L 331,226 L 330,227 L 329,227 L 328,228 L 328,229 L 327,230 L 327,233 L 328,234 L 328,235 L 329,236 L 329,237 L 331,239 L 331,240 L 332,241 L 332,244 L 333,245 L 333,254 L 332,255 L 332,258 L 331,259 L 331,260 L 329,262 L 329,263 L 326,266 L 326,268 L 325,269 L 325,270 L 326,271 L 326,272 L 329,275 L 331,275 L 333,277 L 334,277 L 342,285 L 342,286 L 343,287 L 343,288 L 344,289 L 344,292 L 345,293 L 345,302 L 344,303 L 344,306 L 343,307 L 343,308 L 341,310 L 341,311 L 333,319 L 332,319 L 332,320 L 331,321 L 331,324 L 332,325 L 332,328 L 333,329 L 333,338 L 332,339 L 332,342 L 331,343 L 331,344 L 330,345 L 330,346 L 321,355 L 321,357 L 320,358 L 321,359 L 321,368 L 320,369 L 320,372 L 319,373 L 319,374 L 317,376 L 317,377 L 310,384 L 309,384 L 307,386 L 306,386 L 305,387 L 302,387 L 301,388 L 292,388 L 291,387 L 290,387 L 289,388 L 288,388 L 285,391 L 285,398 L 284,399 L 284,402 L 283,403 L 283,404 L 282,405 L 282,406 L 280,408 L 280,409 L 276,413 L 275,413 L 273,415 L 272,415 L 271,416 L 270,416 L 269,417 L 266,417 L 265,418 L 256,418 L 255,417 L 253,417 L 252,416 L 250,416 L 248,414 L 247,414 L 244,411 L 242,411 L 241,410 L 240,410 L 239,411 L 238,411 L 235,414 L 235,416 L 233,418 L 233,419 L 226,426 L 225,426 L 223,428 L 222,428 L 221,429 L 218,429 L 217,430 L 208,430 L 207,429 L 204,429 L 203,428 L 202,428 L 200,426 L 199,426 L 192,419 L 192,418 L 190,416 L 190,414 L 187,411 L 186,411 L 185,410 L 184,410 L 183,411 L 181,411 L 178,414 L 177,414 L 175,416 L 174,416 L 173,417 L 170,417 L 169,418 L 160,418 L 159,417 L 156,417 L 155,416 L 154,416 L 153,415 L 152,415 L 150,413 L 149,413 L 145,409 L 145,408 L 143,406 L 143,405 L 142,404 L 142,403 L 141,402 L 141,399 L 140,398 L 140,391 L 137,388 L 136,388 L 135,387 L 134,387 L 133,388 L 124,388 L 123,387 L 120,387 L 119,386 L 118,386 L 117,385 L 116,385 L 114,383 L 113,383 L 110,380 L 110,379 L 107,376 L 107,375 L 106,374 L 106,373 L 105,372 L 105,369 L 104,368 L 104,359 L 105,358 L 104,357 L 104,355 L 95,346 L 95,345 L 94,344 L 94,343 L 93,342 L 93,339 L 92,338 L 92,329 L 93,328 L 93,326 L 94,325 L 94,321 L 93,320 L 93,319 L 92,319 L 84,311 L 84,310 L 82,308 L 82,307 L 81,306 L 81,303 L 80,302 L 80,293 L 81,292 L 81,289 L 82,288 L 82,287 L 84,285 L 84,284 L 91,277 L 92,277 L 94,275 L 96,275 L 99,272 L 99,271 L 100,270 L 100,269 L 99,268 L 99,266 L 96,263 L 96,262 L 94,260 L 94,259 L 93,258 L 93,255 L 92,254 L 92,245 L 93,244 L 93,241 L 94,240 L 94,239 L 96,237 L 96,236 L 97,235 L 97,234 L 98,233 L 98,230 L 97,229 L 97,228 L 96,227 L 95,227 L 94,226 Z" fill="black"/><path d="M 253,202 L 252,203 L 251,203 L 250,204 L 250,205 L 249,206 L 249,215 L 250,216 L 250,217 L 251,218 L 252,218 L 253,219 L 256,219 L 257,218 L 258,218 L 259,217 L 259,216 L 260,215 L 260,206 L 259,205 L 259,204 L 258,203 L 257,203 L 256,202 Z" fill="black"/><path d="M 169,202 L 168,203 L 167,203 L 166,204 L 166,205 L 165,206 L 165,215 L 166,216 L 166,217 L 167,218 L 168,218 L 169,219 L 172,219 L 173,218 L 174,218 L 175,217 L 175,216 L 176,215 L 176,206 L 175,205 L 175,204 L 174,203 L 173,203 L 172,202 Z" fill="black"/><path d="M 170,182 L 171,181 L 173,183 L 173,184 L 176,187 L 177,187 L 181,191 L 182,191 L 184,193 L 185,193 L 186,194 L 187,194 L 189,196 L 191,196 L 192,197 L 193,197 L 194,198 L 196,198 L 197,199 L 200,199 L 201,200 L 206,200 L 207,201 L 218,201 L 219,200 L 224,200 L 225,199 L 228,199 L 229,198 L 231,198 L 232,197 L 233,197 L 234,196 L 236,196 L 238,194 L 239,194 L 240,193 L 241,193 L 243,191 L 244,191 L 248,187 L 249,187 L 252,184 L 252,183 L 254,181 L 255,182 L 256,182 L 258,184 L 259,184 L 260,185 L 261,185 L 262,186 L 263,186 L 264,187 L 266,187 L 267,188 L 270,188 L 271,189 L 282,189 L 283,190 L 283,192 L 284,193 L 284,195 L 285,196 L 285,197 L 286,198 L 286,200 L 287,201 L 287,204 L 288,205 L 288,208 L 289,209 L 289,213 L 290,214 L 290,221 L 291,222 L 291,238 L 290,239 L 290,244 L 289,245 L 289,248 L 288,249 L 288,250 L 287,251 L 287,253 L 286,254 L 286,255 L 285,256 L 285,257 L 283,259 L 283,260 L 281,262 L 281,263 L 274,270 L 273,270 L 270,273 L 269,273 L 267,275 L 266,275 L 265,276 L 264,276 L 263,277 L 262,277 L 261,278 L 260,278 L 259,279 L 257,279 L 256,280 L 254,280 L 253,281 L 251,281 L 250,282 L 247,282 L 246,283 L 243,283 L 242,284 L 237,284 L 236,285 L 226,285 L 225,286 L 219,286 L 218,285 L 218,279 L 223,274 L 223,273 L 225,271 L 225,270 L 227,268 L 227,267 L 229,265 L 229,264 L 231,262 L 231,261 L 232,260 L 232,258 L 233,257 L 233,254 L 232,253 L 232,251 L 231,250 L 231,249 L 228,246 L 227,246 L 226,245 L 225,245 L 224,244 L 201,244 L 200,245 L 199,245 L 198,246 L 197,246 L 194,249 L 194,250 L 193,251 L 193,253 L 192,254 L 192,257 L 193,258 L 193,260 L 194,261 L 194,262 L 196,264 L 196,265 L 198,267 L 198,268 L 200,270 L 200,271 L 202,273 L 202,274 L 204,276 L 204,277 L 205,277 L 207,279 L 207,285 L 206,286 L 199,286 L 198,285 L 189,285 L 188,284 L 183,284 L 182,283 L 179,283 L 178,282 L 175,282 L 174,281 L 172,281 L 171,280 L 169,280 L 168,279 L 166,279 L 165,278 L 164,278 L 163,277 L 162,277 L 161,276 L 160,276 L 159,275 L 158,275 L 156,273 L 155,273 L 152,270 L 151,270 L 144,263 L 144,262 L 141,259 L 141,258 L 140,257 L 140,256 L 139,255 L 139,254 L 138,253 L 138,251 L 137,250 L 137,249 L 136,248 L 136,245 L 135,244 L 135,239 L 134,238 L 134,222 L 135,221 L 135,214 L 136,213 L 136,209 L 137,208 L 137,205 L 138,204 L 138,201 L 139,200 L 139,198 L 140,197 L 140,196 L 141,195 L 141,193 L 142,192 L 142,190 L 143,189 L 154,189 L 155,188 L 158,188 L 159,187 L 161,187 L 162,186 L 163,186 L 164,185 L 165,185 L 166,184 L 167,184 L 169,182 Z" fill="black"/><path d="M 308,166 L 309,167 L 310,167 L 312,169 L 313,169 L 314,170 L 315,170 L 317,172 L 318,172 L 321,175 L 322,175 L 325,178 L 326,178 L 332,184 L 333,184 L 335,186 L 335,187 L 336,187 L 338,189 L 338,190 L 342,194 L 342,195 L 343,196 L 343,197 L 344,198 L 344,199 L 345,200 L 345,201 L 343,203 L 332,203 L 331,202 L 328,202 L 327,201 L 324,201 L 323,200 L 321,200 L 320,199 L 318,199 L 317,198 L 315,198 L 314,197 L 313,197 L 312,196 L 311,196 L 310,195 L 308,195 L 307,194 L 306,194 L 305,193 L 304,193 L 303,192 L 302,192 L 301,191 L 300,191 L 298,189 L 297,189 L 296,188 L 295,188 L 293,186 L 293,185 L 294,184 L 295,184 L 298,181 L 299,181 L 300,180 L 300,179 L 303,176 L 303,175 L 305,173 L 305,172 L 306,171 L 306,168 Z" fill="black"/><path d="M 116,167 L 117,166 L 119,168 L 119,171 L 120,172 L 120,173 L 122,175 L 122,176 L 125,179 L 125,180 L 126,181 L 127,181 L 130,184 L 131,184 L 132,185 L 132,186 L 130,188 L 129,188 L 128,189 L 127,189 L 125,191 L 124,191 L 123,192 L 122,192 L 121,193 L 120,193 L 119,194 L 118,194 L 117,195 L 115,195 L 114,196 L 113,196 L 112,197 L 111,197 L 110,198 L 108,198 L 107,199 L 105,199 L 104,200 L 102,200 L 101,201 L 98,201 L 97,202 L 94,202 L 93,203 L 82,203 L 80,201 L 81,200 L 81,198 L 82,197 L 82,196 L 83,195 L 83,194 L 87,190 L 87,189 L 89,187 L 90,187 L 90,186 L 92,184 L 93,184 L 99,178 L 100,178 L 103,175 L 104,175 L 107,172 L 108,172 L 110,170 L 111,170 L 112,169 L 113,169 L 115,167 Z" fill="black"/><path d="M 208,70 L 207,71 L 203,71 L 202,72 L 200,72 L 199,73 L 198,73 L 197,74 L 196,74 L 195,75 L 194,75 L 192,77 L 191,77 L 184,84 L 184,85 L 182,87 L 182,88 L 181,89 L 181,90 L 180,91 L 180,92 L 179,93 L 179,95 L 178,96 L 175,96 L 174,95 L 170,95 L 169,94 L 160,94 L 159,95 L 155,95 L 154,96 L 152,96 L 151,97 L 150,97 L 149,98 L 148,98 L 147,99 L 146,99 L 144,101 L 143,101 L 136,108 L 136,109 L 134,111 L 134,112 L 133,113 L 133,114 L 132,115 L 132,116 L 131,117 L 131,119 L 130,120 L 130,124 L 129,125 L 129,131 L 124,136 L 124,137 L 122,139 L 122,140 L 121,141 L 121,142 L 120,143 L 120,144 L 119,145 L 119,147 L 118,148 L 118,152 L 115,155 L 114,155 L 113,156 L 112,156 L 110,158 L 109,158 L 108,159 L 107,159 L 105,161 L 104,161 L 103,162 L 102,162 L 99,165 L 98,165 L 96,167 L 95,167 L 91,171 L 90,171 L 76,185 L 76,186 L 74,188 L 74,189 L 72,191 L 72,192 L 71,193 L 71,195 L 70,196 L 70,206 L 71,207 L 71,208 L 74,211 L 75,211 L 76,212 L 77,212 L 78,213 L 79,213 L 80,214 L 94,214 L 95,213 L 98,213 L 99,212 L 102,212 L 103,211 L 106,211 L 107,210 L 108,210 L 109,209 L 111,209 L 112,208 L 114,208 L 115,207 L 116,207 L 117,206 L 119,206 L 120,205 L 121,205 L 122,204 L 123,204 L 124,203 L 125,203 L 126,204 L 126,207 L 125,208 L 125,213 L 124,214 L 124,221 L 123,222 L 123,237 L 124,238 L 124,244 L 125,245 L 125,249 L 126,250 L 126,252 L 127,253 L 127,255 L 128,256 L 128,258 L 129,259 L 129,260 L 130,261 L 130,262 L 131,263 L 131,264 L 133,266 L 133,267 L 136,270 L 136,271 L 143,278 L 144,278 L 147,281 L 148,281 L 150,283 L 151,283 L 153,285 L 154,285 L 155,286 L 156,286 L 157,287 L 158,287 L 159,288 L 161,288 L 162,289 L 163,289 L 164,290 L 166,290 L 167,291 L 169,291 L 170,292 L 173,292 L 174,293 L 177,293 L 178,294 L 182,294 L 183,295 L 189,295 L 190,296 L 200,296 L 201,297 L 224,297 L 225,296 L 235,296 L 236,295 L 242,295 L 243,294 L 247,294 L 248,293 L 251,293 L 252,292 L 255,292 L 256,291 L 258,291 L 259,290 L 261,290 L 262,289 L 263,289 L 264,288 L 266,288 L 267,287 L 268,287 L 269,286 L 270,286 L 271,285 L 272,285 L 274,283 L 275,283 L 277,281 L 278,281 L 281,278 L 282,278 L 289,271 L 289,270 L 292,267 L 292,266 L 294,264 L 294,263 L 295,262 L 295,261 L 296,260 L 296,259 L 297,258 L 297,256 L 298,255 L 298,253 L 299,252 L 299,250 L 300,249 L 300,245 L 301,244 L 301,238 L 302,237 L 302,223 L 301,222 L 301,214 L 300,213 L 300,208 L 299,207 L 299,204 L 300,203 L 301,203 L 302,204 L 303,204 L 304,205 L 305,205 L 306,206 L 308,206 L 309,207 L 310,207 L 311,208 L 313,208 L 314,209 L 316,209 L 317,210 L 318,210 L 319,211 L 322,211 L 323,212 L 326,212 L 327,213 L 330,213 L 331,214 L 345,214 L 346,213 L 347,213 L 348,212 L 349,212 L 350,211 L 351,211 L 354,208 L 354,207 L 355,206 L 355,196 L 354,195 L 354,193 L 353,192 L 353,191 L 351,189 L 351,188 L 349,186 L 349,185 L 335,171 L 334,171 L 330,167 L 329,167 L 327,165 L 326,165 L 323,162 L 322,162 L 321,161 L 320,161 L 318,159 L 317,159 L 316,158 L 315,158 L 313,156 L 312,156 L 311,155 L 310,155 L 307,152 L 307,148 L 306,147 L 306,145 L 305,144 L 305,143 L 304,142 L 304,141 L 303,140 L 303,139 L 301,137 L 301,136 L 296,131 L 296,125 L 295,124 L 295,120 L 294,119 L 294,117 L 293,116 L 293,115 L 292,114 L 292,113 L 291,112 L 291,111 L 289,109 L 289,108 L 282,101 L 281,101 L 279,99 L 278,99 L 277,98 L 276,98 L 275,97 L 274,97 L 273,96 L 271,96 L 270,95 L 264,95 L 262,97 L 262,98 L 261,99 L 261,102 L 264,105 L 265,105 L 266,106 L 269,106 L 270,107 L 271,107 L 272,108 L 273,108 L 276,111 L 277,111 L 279,113 L 279,114 L 282,117 L 282,118 L 283,119 L 283,120 L 284,121 L 284,124 L 285,125 L 285,136 L 286,137 L 286,138 L 287,138 L 294,145 L 294,146 L 295,147 L 295,148 L 296,149 L 296,151 L 297,152 L 297,163 L 296,164 L 296,166 L 295,167 L 295,168 L 294,169 L 294,170 L 289,175 L 288,175 L 287,176 L 286,176 L 285,177 L 283,177 L 282,178 L 271,178 L 270,177 L 268,177 L 267,176 L 266,176 L 265,175 L 264,175 L 256,167 L 251,167 L 248,170 L 248,171 L 246,173 L 246,174 L 239,181 L 238,181 L 236,183 L 235,183 L 233,185 L 232,185 L 231,186 L 230,186 L 229,187 L 228,187 L 227,188 L 225,188 L 224,189 L 220,189 L 219,190 L 206,190 L 205,189 L 201,189 L 200,188 L 199,188 L 198,187 L 196,187 L 195,186 L 194,186 L 193,185 L 192,185 L 190,183 L 189,183 L 187,181 L 186,181 L 179,174 L 179,173 L 177,171 L 177,170 L 174,167 L 169,167 L 161,175 L 160,175 L 159,176 L 158,176 L 157,177 L 155,177 L 154,178 L 143,178 L 142,177 L 140,177 L 139,176 L 138,176 L 137,175 L 136,175 L 131,170 L 131,169 L 130,168 L 130,167 L 129,166 L 129,164 L 128,163 L 128,152 L 129,151 L 129,149 L 130,148 L 130,147 L 131,146 L 131,145 L 138,138 L 139,138 L 139,137 L 140,136 L 140,125 L 141,124 L 141,121 L 142,120 L 142,119 L 143,118 L 143,117 L 146,114 L 146,113 L 148,111 L 149,111 L 152,108 L 153,108 L 154,107 L 155,107 L 156,106 L 159,106 L 160,105 L 169,105 L 170,106 L 173,106 L 174,107 L 175,107 L 177,109 L 178,109 L 179,110 L 180,110 L 181,111 L 184,111 L 185,110 L 186,110 L 187,109 L 187,108 L 188,107 L 188,101 L 189,100 L 189,97 L 190,96 L 190,95 L 191,94 L 191,93 L 193,91 L 193,90 L 197,86 L 198,86 L 200,84 L 201,84 L 202,83 L 203,83 L 204,82 L 207,82 L 208,81 L 217,81 L 218,82 L 221,82 L 222,83 L 223,83 L 224,84 L 225,84 L 227,86 L 228,86 L 232,90 L 232,91 L 234,93 L 234,94 L 235,95 L 235,96 L 236,97 L 236,100 L 237,101 L 237,107 L 238,108 L 238,109 L 239,110 L 240,110 L 241,111 L 244,111 L 245,110 L 246,110 L 247,109 L 247,108 L 248,107 L 248,101 L 247,100 L 247,96 L 246,95 L 246,93 L 245,92 L 245,91 L 244,90 L 244,89 L 243,88 L 243,87 L 241,85 L 241,84 L 234,77 L 233,77 L 231,75 L 230,75 L 229,74 L 228,74 L 227,73 L 226,73 L 225,72 L 223,72 L 222,71 L 218,71 L 217,70 Z" fill="black"/></svg>